<svg width="170" height="40" viewBox="0 0 170 40" fill="none" xmlns="http://www.w3.org/2000/svg">
<g clip-path="url(#clip0_74_131)">
<path d="M149.533 29.4771C149.533 29.7247 149.436 29.937 149.241 30.1139C149.064 30.3085 148.852 30.4058 148.604 30.4058H117.666C117.418 30.4058 117.197 30.3085 117.002 30.1139C116.825 29.937 116.737 29.7247 116.737 29.4771C116.737 29.2117 116.825 28.9818 117.002 28.7872C117.197 28.6103 117.418 28.5218 117.666 28.5218H126.661V24.0906C126.661 23.7722 126.767 23.5069 126.979 23.2946C127.209 23.0646 127.483 22.9496 127.802 22.9496C128.12 22.9496 128.385 23.0646 128.598 23.2946C128.828 23.5069 128.943 23.7722 128.943 24.0906V28.5218H148.604C148.852 28.5218 149.064 28.6103 149.241 28.7872C149.436 28.9818 149.533 29.2117 149.533 29.4771ZM126.926 10.6642C126.926 10.3458 127.032 10.0805 127.244 9.86822C127.457 9.65594 127.713 9.5498 128.014 9.5498H128.067C128.385 9.5498 128.651 9.65594 128.863 9.86822C129.075 10.0805 129.181 10.337 129.181 10.6377C129.146 12.2475 128.739 13.7422 127.961 15.122C127.182 16.4841 126.218 17.6074 125.069 18.4919C123.494 19.6948 121.584 20.5615 119.337 21.0922C119.302 21.0922 119.258 21.1011 119.205 21.1188C119.134 21.1365 119.09 21.1453 119.072 21.1453C118.789 21.1453 118.541 21.048 118.329 20.8534C118.134 20.6411 118.002 20.4377 117.931 20.2431C117.86 20.0485 117.851 19.9513 117.904 19.9513C117.904 19.792 117.966 19.6063 118.09 19.394C118.285 19.1287 118.523 18.9606 118.806 18.8899C121.106 18.3592 123.008 17.404 124.511 16.0242C126.015 14.6267 126.82 12.8401 126.926 10.6642ZM130.084 15.7588C130.137 15.4935 130.269 15.2724 130.482 15.0955C130.694 14.9186 130.915 14.8301 131.145 14.8301C131.269 14.8301 131.357 14.839 131.41 14.8567C134.541 15.4404 136.602 17.0502 137.593 19.6859C137.646 19.8451 137.672 19.9866 137.672 20.1105C137.672 20.3581 137.575 20.5969 137.381 20.8269C137.186 21.0392 136.921 21.1453 136.584 21.1453H136.478C136.018 21.1453 135.665 20.8711 135.417 20.3227C135.152 19.4913 134.586 18.7837 133.719 18.2C132.852 17.6162 131.941 17.2448 130.986 17.0855C130.72 17.0325 130.499 16.8998 130.322 16.6875C130.145 16.4753 130.057 16.2541 130.057 16.0242C130.057 15.9003 130.066 15.8119 130.084 15.7588Z" fill="white"/>
<path d="M105.95 31.1222C105.738 31.3522 105.473 31.4671 105.154 31.4671C104.836 31.4671 104.562 31.3522 104.332 31.1222C104.119 30.9099 104.013 30.6446 104.013 30.3262V23.7987H95.0181C94.7704 23.7987 94.5493 23.7103 94.3547 23.5334C94.1778 23.3388 94.0894 23.1177 94.0894 22.87C94.0894 22.6047 94.1778 22.3836 94.3547 22.2067C94.5493 22.0298 94.7704 21.9413 95.0181 21.9413H115.29C115.538 21.9413 115.75 22.0298 115.927 22.2067C116.122 22.3836 116.219 22.6047 116.219 22.87C116.219 23.1177 116.122 23.3388 115.927 23.5334C115.75 23.7103 115.538 23.7987 115.29 23.7987H106.295V30.3262C106.295 30.6446 106.18 30.9099 105.95 31.1222ZM111.867 19.0491V14.2464C111.867 13.468 111.584 12.8047 111.018 12.2563C110.47 11.6902 109.807 11.4072 109.028 11.4072H97.0877C96.5217 11.3364 96.2121 11.018 96.159 10.452C96.159 10.2043 96.2386 9.99204 96.3978 9.81515C96.557 9.63825 96.7782 9.5498 97.0612 9.5498H109.32C110.647 9.5498 111.779 10.0186 112.716 10.9561C113.672 11.8937 114.149 13.0258 114.149 14.3525V19.0491C114.149 19.3852 114.034 19.6594 113.804 19.8716C113.574 20.0839 113.3 20.1901 112.982 20.1901C112.681 20.1901 112.416 20.0751 112.186 19.8451C111.973 19.6152 111.867 19.3498 111.867 19.0491Z" fill="white"/>
<path d="M73.9055 24.5368C74.1354 24.3068 74.4096 24.1918 74.728 24.1918C75.0464 24.1918 75.3118 24.3068 75.5241 24.5368C75.754 24.7491 75.869 25.0056 75.869 25.3063V29.5783H91.4977C91.7631 29.5783 91.9842 29.6667 92.1611 29.8436C92.3557 30.0382 92.453 30.2682 92.453 30.5335C92.453 30.7812 92.3557 30.9935 92.1611 31.1704C91.9842 31.3649 91.7631 31.4622 91.4977 31.4622H74.728C74.4096 31.4622 74.1354 31.3473 73.9055 31.1173C73.6932 30.905 73.5871 30.6397 73.5871 30.3213V25.3063C73.5871 25.0056 73.6932 24.7491 73.9055 24.5368ZM78.602 9.35916C80.2472 9.35916 81.5474 9.81908 82.5026 10.7389C83.4755 11.6588 84.0946 12.8882 84.36 14.4272C84.4307 14.7987 84.4661 15.1171 84.4661 15.3824V16.0723C84.4661 17.0983 84.2273 18.0801 83.7497 19.0176C83.2721 19.9375 82.6795 20.6539 81.9719 21.1669C81.052 21.8037 79.9288 22.1222 78.602 22.1222C76.9392 22.1222 75.6214 21.6622 74.6484 20.7424C73.6932 19.8225 73.0829 18.5843 72.8176 17.0276C72.7468 16.6561 72.7114 16.3377 72.7114 16.0723V15.3824C72.7114 14.3741 72.9502 13.4012 73.4279 12.4637C73.9055 11.5084 74.4981 10.792 75.2057 10.3144C76.1255 9.67757 77.2576 9.35916 78.602 9.35916ZM89.6403 9.5449C89.8703 9.31493 90.1445 9.19995 90.4629 9.19995C90.7813 9.19995 91.0466 9.31493 91.2589 9.5449C91.4889 9.75717 91.6039 10.0225 91.6039 10.3409V22.4936C91.6039 22.7944 91.4889 23.0597 91.2589 23.2897C91.0466 23.5196 90.7813 23.6346 90.4629 23.6346C90.1445 23.6346 89.8703 23.5196 89.6403 23.2897C89.428 23.0597 89.3219 22.7944 89.3219 22.4936V18.6196H86.4297C86.182 18.6196 85.9609 18.5312 85.7663 18.3543C85.5894 18.1597 85.501 17.9386 85.501 17.6909C85.501 17.4256 85.5894 17.2045 85.7663 17.0276C85.9609 16.833 86.182 16.7357 86.4297 16.7357H89.3219V14.8252H86.4297C86.182 14.8252 85.9609 14.7368 85.7663 14.5599C85.5894 14.3653 85.501 14.1353 85.501 13.87C85.501 13.6223 85.5894 13.4101 85.7663 13.2332C85.9609 13.0386 86.182 12.9413 86.4297 12.9413H89.3219V10.3409C89.3219 10.0225 89.428 9.75717 89.6403 9.5449ZM82.1842 16.0723V15.3824C82.1842 14.6395 82.0161 13.9231 81.68 13.2332C81.3616 12.5256 80.9636 12.0214 80.486 11.7207C79.9907 11.3846 79.3627 11.2166 78.602 11.2166C76.6739 11.2166 75.4887 12.3664 75.0464 14.666C75.0464 14.7191 75.0376 14.8075 75.0199 14.9314C75.0199 15.0552 75.0111 15.1348 74.9934 15.1702V16.0723C74.9934 17.2575 75.3118 18.2482 75.9486 19.0442C76.5854 19.8402 77.4699 20.2382 78.602 20.2382C79.7342 20.2382 80.6098 19.8402 81.2289 19.0442C81.8658 18.2305 82.1842 17.2398 82.1842 16.0723Z" fill="white"/>
<path d="M52.7704 28.8639V14.2701C52.7704 13.6155 52.5316 13.0495 52.054 12.5719C51.5764 12.0766 50.9926 11.8289 50.3027 11.8289H47.2513C46.8798 11.8289 46.5791 11.7051 46.3491 11.4574C46.1191 11.2098 46.0042 10.9179 46.0042 10.5818C46.0042 10.2634 46.1103 9.98919 46.3226 9.75923C46.5525 9.51157 46.8532 9.38775 47.2247 9.38775H50.5946C52.0451 9.38775 53.2569 9.8919 54.2298 10.9002C55.2027 11.8908 55.6892 13.0583 55.6892 14.4027V28.8905C55.6892 29.2619 55.5477 29.5892 55.2646 29.8722C54.9816 30.1553 54.6278 30.2968 54.2032 30.2968C53.7787 30.2968 53.4338 30.1464 53.1684 29.8457C52.9031 29.5627 52.7704 29.2354 52.7704 28.8639ZM63.0922 20.5056H60.9164V29.9253C60.9164 30.2968 60.7749 30.624 60.4919 30.9071C60.2088 31.1901 59.8639 31.3316 59.457 31.3316C59.0325 31.3316 58.6787 31.1901 58.3957 30.9071C58.1303 30.624 57.9977 30.2968 57.9977 29.9253V10.4757C57.9977 10.1042 58.1303 9.77692 58.3957 9.49388C58.6787 9.21085 59.0325 9.06934 59.457 9.06934C59.8639 9.06934 60.2088 9.21085 60.4919 9.49388C60.7749 9.77692 60.9164 10.1042 60.9164 10.4757V18.0645H63.0922V10.4757C63.0922 10.1042 63.2338 9.77692 63.5168 9.49388C63.7998 9.21085 64.1448 9.06934 64.5516 9.06934C64.9762 9.06934 65.3211 9.21085 65.5865 9.49388C65.8695 9.77692 66.011 10.1042 66.011 10.4757V29.9253C66.011 30.2968 65.8695 30.624 65.5865 30.9071C65.3211 31.1901 64.9762 31.3316 64.5516 31.3316C64.1448 31.3316 63.7998 31.1901 63.5168 30.9071C63.2338 30.624 63.0922 30.2968 63.0922 29.9253V20.5056Z" fill="white"/>
<path d="M28.3459 25.0364V28.8839H43.444C43.7978 28.8839 44.0985 29.0077 44.3461 29.2554C44.5938 29.503 44.7176 29.786 44.7176 30.1045C44.7176 30.4406 44.5938 30.7236 44.3461 30.9536C44.0985 31.2012 43.7978 31.325 43.444 31.325H26.8866C26.4797 31.325 26.1348 31.1835 25.8517 30.9005C25.5864 30.6175 25.4537 30.2902 25.4537 29.9187V25.0364C25.4537 24.6649 25.5864 24.3377 25.8517 24.0546C26.1348 23.7716 26.4797 23.6301 26.8866 23.6301C27.3111 23.6301 27.6561 23.7716 27.9214 24.0546C28.2044 24.3377 28.3459 24.6649 28.3459 25.0364ZM32.0873 10.5752H36.5981C37.005 10.5752 37.3145 10.7079 37.5268 10.9732C37.7568 11.2209 37.8718 11.5128 37.8718 11.8489C37.8718 12.185 37.7656 12.4768 37.5534 12.7245C37.3411 12.9545 37.0315 13.0694 36.6247 13.0694H32.0608C32.0077 14.9445 31.3443 16.6073 30.0707 18.0579C28.797 19.4907 27.205 20.4813 25.2945 21.0297C25.153 21.0651 25.0203 21.0828 24.8965 21.0828C24.4896 21.0828 24.1358 20.9413 23.8351 20.6582C23.5344 20.3752 23.384 20.0391 23.384 19.6499C23.384 19.3315 23.4902 19.0485 23.7024 18.8008C23.9147 18.5355 24.1712 18.3586 24.4719 18.2702C25.781 17.9164 26.86 17.2795 27.7091 16.3597C28.5582 15.4221 29.0182 14.3254 29.0889 13.0694H25.3476C24.9938 13.0694 24.6842 12.9456 24.4189 12.698C24.1712 12.4503 24.0474 12.1584 24.0474 11.8223C24.0474 11.4862 24.1712 11.1943 24.4189 10.9467C24.6842 10.699 24.9938 10.5752 25.3476 10.5752H29.0889V9.69958C29.0889 9.31041 29.2304 8.97431 29.5135 8.69127C29.8142 8.40824 30.168 8.26672 30.5748 8.26672C30.9817 8.26672 31.3355 8.40824 31.6362 8.69127C31.9369 8.97431 32.0873 9.31041 32.0873 9.69958V10.5752ZM34.5019 15.6433C36.0586 16.457 37.0227 17.6864 37.3941 19.3315C37.4472 19.4554 37.4738 19.5792 37.4738 19.703C37.4738 20.0745 37.3145 20.4017 36.9961 20.6848C36.6777 20.9501 36.3328 21.0828 35.9613 21.0828C35.6429 21.0828 35.3687 21.0032 35.1387 20.844C34.9265 20.6848 34.7761 20.5344 34.6876 20.3929C34.6169 20.2337 34.5196 20.0037 34.3958 19.703C34.1304 19.0662 33.7766 18.6063 33.3344 18.3232C32.8214 17.9871 32.5649 17.5449 32.5649 16.9965C32.5649 16.6073 32.6976 16.2712 32.9629 15.9882C33.2459 15.6875 33.5821 15.5371 33.9712 15.5371C34.1658 15.5371 34.3427 15.5725 34.5019 15.6433ZM40.9497 22.3034V17.3149H39.0127C38.6413 17.3149 38.3317 17.1911 38.084 16.9434C37.8541 16.6958 37.7391 16.4128 37.7391 16.0943C37.7391 15.7582 37.8629 15.4664 38.1106 15.2187C38.3582 14.9711 38.6589 14.8472 39.0127 14.8472H40.9497V10.4691C40.9497 10.0976 41.0913 9.77033 41.3743 9.4873C41.6573 9.20427 42.0023 9.06275 42.4091 9.06275C42.8337 9.06275 43.1786 9.20427 43.444 9.4873C43.727 9.77033 43.8685 10.0976 43.8685 10.4691V22.3034C43.8685 22.6749 43.727 23.0021 43.444 23.2851C43.1786 23.5682 42.8337 23.7097 42.4091 23.7097C42.0023 23.7097 41.6573 23.5682 41.3743 23.2851C41.0913 23.0021 40.9497 22.6749 40.9497 22.3034Z" fill="white"/>
<path d="M4.96167 27.9559V28.8846H19.2106C19.5644 28.8846 19.8651 29.0085 20.1128 29.2561C20.3604 29.5038 20.4842 29.7868 20.4842 30.1052C20.4842 30.4413 20.3604 30.7244 20.1128 30.9543C19.8651 31.202 19.5644 31.3258 19.2106 31.3258H3.50228C3.07774 31.3258 2.72394 31.1843 2.44091 30.9012C2.17557 30.6182 2.0429 30.291 2.0429 29.9195V26.9476C2.0429 26.5762 2.17557 26.2489 2.44091 25.9659C2.72394 25.6651 3.07774 25.5148 3.50228 25.5148H17.5655V24.6126H3.29001C2.93622 24.6126 2.6355 24.4888 2.38784 24.2411C2.15788 23.9935 2.0429 23.7016 2.0429 23.3655C2.0429 23.0471 2.15788 22.7641 2.38784 22.5164C2.6355 22.2688 2.93622 22.1449 3.29001 22.1449H19.0249C19.4317 22.1449 19.7767 22.2953 20.0597 22.596C20.3427 22.879 20.4842 23.2063 20.4842 23.5778V26.5496C20.4842 26.9211 20.3427 27.2484 20.0597 27.5314C19.7767 27.8144 19.4317 27.9559 19.0249 27.9559H4.96167ZM-0.000244141 19.7834C-0.000244141 19.4473 0.114738 19.1554 0.344702 18.9077C0.592355 18.6601 0.893077 18.5363 1.24687 18.5363H21.2537C21.6075 18.5363 21.8994 18.6601 22.1294 18.9077C22.377 19.1554 22.5008 19.4473 22.5008 19.7834C22.5008 20.1018 22.377 20.3848 22.1294 20.6325C21.8994 20.8801 21.6075 21.004 21.2537 21.004H1.24687C0.893077 21.004 0.592355 20.8801 0.344702 20.6325C0.114738 20.3848 -0.000244141 20.1018 -0.000244141 19.7834ZM3.36961 11.77C2.99813 11.77 2.69741 11.6462 2.46745 11.3985C2.23748 11.1509 2.1225 10.8678 2.1225 10.5494C2.1225 10.2133 2.22864 9.9303 2.44091 9.70034C2.67088 9.45268 2.98044 9.32886 3.36961 9.32886H15.1508C16.6014 9.32886 17.8131 9.83301 18.786 10.8413C19.759 11.8319 20.2454 12.9994 20.2454 14.3438V16.1747C20.2454 16.5462 20.1039 16.8734 19.8209 17.1565C19.5378 17.4395 19.1841 17.581 18.7595 17.581C18.335 17.581 17.99 17.4395 17.7247 17.1565C17.4593 16.8734 17.3267 16.5462 17.3267 16.1747V14.2377C17.3267 13.5655 17.0878 12.9906 16.6102 12.513C16.1326 12.0177 15.5489 11.77 14.859 11.77H3.36961Z" fill="white"/>
<mask id="mask0_74_131" style="mask-type:alpha" maskUnits="userSpaceOnUse" x="138" y="12" width="17" height="17">
<rect x="138.4" y="12.2667" width="16.5333" height="16.5333" fill="#D9D9D9"/>
</mask>
<g mask="url(#mask0_74_131)">
<path d="M145.013 19.1556L148.733 22.8756L145.289 26.32C145.013 26.5956 144.692 26.7334 144.324 26.7334C143.957 26.7334 143.635 26.5956 143.36 26.32L143.325 26.2856L142.878 26.7334H139.433L141.603 24.5634L141.569 24.5289C141.293 24.2534 141.155 23.9319 141.155 23.5645C141.155 23.1971 141.293 22.8756 141.569 22.6L145.013 19.1556ZM145.995 18.1739L149.422 14.7467C149.698 14.4712 150.019 14.3334 150.386 14.3334C150.754 14.3334 151.075 14.4712 151.351 14.7467L153.142 16.5378C153.418 16.8134 153.555 17.1349 153.555 17.5023C153.555 17.8697 153.418 18.1912 153.142 18.4667L149.715 21.8939L145.995 18.1739Z" fill="white"/>
</g>
</g>
<defs>
<clipPath id="clip0_74_131">
<rect width="169.6" height="40" fill="white"/>
</clipPath>
</defs>
</svg>
