<svg width="151" height="24" viewBox="0 0 151 24" fill="none" xmlns="http://www.w3.org/2000/svg">
<g id="Group 1089">
<g id="&#234;&#184;&#128;&#236;&#178;&#156;&#234;&#176;&#156; &#236;&#151;&#176;&#234;&#181;&#172;&#236;&#134;&#140;">
<path id="Vector" d="M145.482 21.4771C145.482 21.7247 145.388 21.937 145.198 22.1139C145.026 22.3085 144.82 22.4058 144.579 22.4058H114.479C114.238 22.4058 114.023 22.3085 113.834 22.1139C113.662 21.937 113.576 21.7247 113.576 21.4771C113.576 21.2117 113.662 20.9818 113.834 20.7872C114.023 20.6103 114.238 20.5218 114.479 20.5218H123.23V16.0906C123.23 15.7722 123.333 15.5069 123.54 15.2946C123.764 15.0646 124.03 14.9496 124.34 14.9496C124.65 14.9496 124.908 15.0646 125.115 15.2946C125.338 15.5069 125.45 15.7722 125.45 16.0906V20.5218H144.579C144.82 20.5218 145.026 20.6103 145.198 20.7872C145.388 20.9818 145.482 21.2117 145.482 21.4771ZM123.488 2.66425C123.488 2.34583 123.592 2.08049 123.798 1.86822C124.005 1.65594 124.254 1.5498 124.547 1.5498H124.598C124.908 1.5498 125.166 1.65594 125.373 1.86822C125.579 2.08049 125.683 2.33699 125.683 2.63771C125.648 4.24746 125.252 5.74222 124.495 7.12201C123.738 8.4841 122.8 9.60739 121.681 10.4919C120.15 11.6948 118.291 12.5615 116.105 13.0922C116.071 13.0922 116.028 13.1011 115.976 13.1188C115.907 13.1365 115.864 13.1453 115.847 13.1453C115.572 13.1453 115.331 13.048 115.124 12.8534C114.935 12.6411 114.806 12.4377 114.737 12.2431C114.668 12.0485 114.66 11.9513 114.711 11.9513C114.711 11.792 114.772 11.6063 114.892 11.394C115.081 11.1287 115.314 10.9606 115.589 10.8899C117.826 10.3592 119.676 9.40396 121.139 8.02417C122.602 6.6267 123.385 4.84006 123.488 2.66425ZM126.56 7.75883C126.612 7.49349 126.741 7.27237 126.948 7.09547C127.154 6.91858 127.369 6.83013 127.593 6.83013C127.713 6.83013 127.799 6.83898 127.851 6.85667C130.897 7.44042 132.902 9.05017 133.866 11.6859C133.917 11.8451 133.943 11.9866 133.943 12.1105C133.943 12.3581 133.849 12.5969 133.659 12.8269C133.47 13.0392 133.212 13.1453 132.885 13.1453H132.782C132.334 13.1453 131.99 12.8711 131.749 12.3227C131.491 11.4913 130.94 10.7837 130.097 10.2C129.254 9.61623 128.367 9.24475 127.438 9.08555C127.18 9.03248 126.965 8.89981 126.793 8.68753C126.621 8.47526 126.535 8.25414 126.535 8.02417C126.535 7.90035 126.543 7.8119 126.56 7.75883Z" fill="#191919"/>
<path id="Vector_2" d="M103.082 23.1222C102.875 23.3522 102.617 23.4671 102.307 23.4671C101.997 23.4671 101.731 23.3522 101.507 23.1222C101.3 22.9099 101.197 22.6446 101.197 22.3262V15.7987H92.446C92.2051 15.7987 91.9899 15.7103 91.8006 15.5334C91.6285 15.3388 91.5425 15.1177 91.5425 14.87C91.5425 14.6047 91.6285 14.3836 91.8006 14.2067C91.9899 14.0298 92.2051 13.9413 92.446 13.9413H112.168C112.409 13.9413 112.616 14.0298 112.788 14.2067C112.977 14.3836 113.072 14.6047 113.072 14.87C113.072 15.1177 112.977 15.3388 112.788 15.5334C112.616 15.7103 112.409 15.7987 112.168 15.7987H103.417V22.3262C103.417 22.6446 103.305 22.9099 103.082 23.1222ZM108.838 11.0491V6.24638C108.838 5.46804 108.563 4.80468 108.012 4.2563C107.479 3.69024 106.833 3.40721 106.076 3.40721H94.4595C93.9088 3.33645 93.6077 3.01804 93.556 2.45197C93.556 2.20432 93.6335 1.99204 93.7884 1.81515C93.9432 1.63825 94.1584 1.5498 94.4337 1.5498H106.36C107.651 1.5498 108.752 2.01858 109.664 2.95612C110.594 3.89367 111.058 5.0258 111.058 6.35251V11.0491C111.058 11.3852 110.946 11.6594 110.723 11.8716C110.499 12.0839 110.232 12.1901 109.923 12.1901C109.63 12.1901 109.372 12.0751 109.148 11.8451C108.942 11.6152 108.838 11.3498 108.838 11.0491Z" fill="#191919"/>
<path id="Vector_3" d="M71.906 16.5365C72.1298 16.3066 72.3965 16.1916 72.7063 16.1916C73.0161 16.1916 73.2742 16.3066 73.4807 16.5365C73.7045 16.7488 73.8163 17.0053 73.8163 17.306V21.5781H89.0211C89.2793 21.5781 89.4944 21.6665 89.6665 21.8434C89.8558 22.038 89.9505 22.2679 89.9505 22.5333C89.9505 22.7809 89.8558 22.9932 89.6665 23.1701C89.4944 23.3647 89.2793 23.462 89.0211 23.462H72.7063C72.3965 23.462 72.1298 23.347 71.906 23.117C71.6995 22.9048 71.5963 22.6394 71.5963 22.321V17.306C71.5963 17.0053 71.6995 16.7488 71.906 16.5365ZM76.4752 1.35891C78.0757 1.35891 79.3407 1.81884 80.27 2.7387C81.2165 3.65855 81.8189 4.88798 82.077 6.42697C82.1458 6.79845 82.1803 7.11686 82.1803 7.3822V8.07209C82.1803 9.09809 81.9479 10.0799 81.4833 11.0174C81.0186 11.9373 80.4421 12.6537 79.7537 13.1667C78.8588 13.8035 77.766 14.1219 76.4752 14.1219C74.8575 14.1219 73.5754 13.662 72.6289 12.7421C71.6995 11.8223 71.1058 10.584 70.8476 9.02733C70.7788 8.65585 70.7444 8.33744 70.7444 8.07209V7.3822C70.7444 6.3739 70.9767 5.40097 71.4414 4.46343C71.906 3.50819 72.4826 2.79177 73.171 2.31415C74.0659 1.67732 75.1673 1.35891 76.4752 1.35891ZM87.2141 1.54465C87.4378 1.31469 87.7046 1.19971 88.0144 1.19971C88.3241 1.19971 88.5823 1.31469 88.7888 1.54465C89.0125 1.75693 89.1244 2.02227 89.1244 2.34068V14.4934C89.1244 14.7941 89.0125 15.0595 88.7888 15.2894C88.5823 15.5194 88.3241 15.6344 88.0144 15.6344C87.7046 15.6344 87.4378 15.5194 87.2141 15.2894C87.0076 15.0595 86.9043 14.7941 86.9043 14.4934V10.6194H84.0906C83.8496 10.6194 83.6345 10.5309 83.4452 10.354C83.2731 10.1595 83.187 9.93834 83.187 9.69069C83.187 9.42534 83.2731 9.20422 83.4452 9.02733C83.6345 8.83274 83.8496 8.73545 84.0906 8.73545H86.9043V6.82498H84.0906C83.8496 6.82498 83.6345 6.73653 83.4452 6.55964C83.2731 6.36505 83.187 6.13509 83.187 5.86975C83.187 5.62209 83.2731 5.40982 83.4452 5.23292C83.6345 5.03834 83.8496 4.94105 84.0906 4.94105H86.9043V2.34068C86.9043 2.02227 87.0076 1.75693 87.2141 1.54465ZM79.9602 8.07209V7.3822C79.9602 6.63924 79.7967 5.92281 79.4697 5.23292C79.16 4.52534 78.7727 4.02119 78.3081 3.72047C77.8262 3.38436 77.2153 3.21631 76.4752 3.21631C74.5994 3.21631 73.4463 4.36613 73.0161 6.66578C73.0161 6.71884 73.0075 6.80729 72.9903 6.93112C72.9903 7.05494 72.9817 7.13455 72.9644 7.16993V8.07209C72.9644 9.25729 73.2742 10.2479 73.8938 11.0439C74.5133 11.84 75.3738 12.238 76.4752 12.238C77.5767 12.238 78.4285 11.84 79.0309 11.0439C79.6504 10.2302 79.9602 9.2396 79.9602 8.07209Z" fill="#191919"/>
<path id="Vector_4" d="M51.3441 20.8639V6.27006C51.3441 5.61555 51.1117 5.04948 50.6471 4.57186C50.1824 4.07656 49.6145 3.8289 48.9433 3.8289H45.9746C45.6132 3.8289 45.3207 3.70508 45.0969 3.45742C44.8732 3.20977 44.7614 2.91789 44.7614 2.58179C44.7614 2.26338 44.8646 1.98919 45.0711 1.75923C45.2949 1.51157 45.5874 1.38775 45.9488 1.38775H49.2273C50.6385 1.38775 51.8173 1.8919 52.7639 2.9002C53.7104 3.89082 54.1837 5.05833 54.1837 6.40273V20.8905C54.1837 21.2619 54.046 21.5892 53.7707 21.8722C53.4953 22.1553 53.1511 22.2968 52.7381 22.2968C52.325 22.2968 51.9894 22.1464 51.7313 21.8457C51.4732 21.5627 51.3441 21.2354 51.3441 20.8639ZM61.386 12.5056H59.2692V21.9253C59.2692 22.2968 59.1315 22.624 58.8561 22.9071C58.5808 23.1901 58.2452 23.3316 57.8494 23.3316C57.4363 23.3316 57.0921 23.1901 56.8168 22.9071C56.5586 22.624 56.4296 22.2968 56.4296 21.9253V2.47565C56.4296 2.10417 56.5586 1.77692 56.8168 1.49388C57.0921 1.21085 57.4363 1.06934 57.8494 1.06934C58.2452 1.06934 58.5808 1.21085 58.8561 1.49388C59.1315 1.77692 59.2692 2.10417 59.2692 2.47565V10.0645H61.386V2.47565C61.386 2.10417 61.5237 1.77692 61.799 1.49388C62.0744 1.21085 62.41 1.06934 62.8058 1.06934C63.2188 1.06934 63.5544 1.21085 63.8125 1.49388C64.0879 1.77692 64.2256 2.10417 64.2256 2.47565V21.9253C64.2256 22.2968 64.0879 22.624 63.8125 22.9071C63.5544 23.1901 63.2188 23.3316 62.8058 23.3316C62.41 23.3316 62.0744 23.1901 61.799 22.9071C61.5237 22.624 61.386 22.2968 61.386 21.9253V12.5056Z" fill="#191919"/>
<path id="Vector_5" d="M27.5822 17.0363V20.8838H42.2707C42.6149 20.8838 42.9075 21.0076 43.1484 21.2552C43.3894 21.5029 43.5098 21.7859 43.5098 22.1043C43.5098 22.4404 43.3894 22.7235 43.1484 22.9534C42.9075 23.2011 42.6149 23.3249 42.2707 23.3249H26.1624C25.7666 23.3249 25.431 23.1834 25.1556 22.9004C24.8975 22.6173 24.7684 22.2901 24.7684 21.9186V17.0363C24.7684 16.6648 24.8975 16.3375 25.1556 16.0545C25.431 15.7715 25.7666 15.63 26.1624 15.63C26.5754 15.63 26.911 15.7715 27.1692 16.0545C27.4445 16.3375 27.5822 16.6648 27.5822 17.0363ZM31.2221 2.57509H35.6106C36.0064 2.57509 36.3076 2.70776 36.5141 2.9731C36.7378 3.22075 36.8497 3.51263 36.8497 3.84873C36.8497 4.18483 36.7464 4.47671 36.5399 4.72437C36.3334 4.95433 36.0322 5.06931 35.6364 5.06931H31.1963C31.1446 6.9444 30.4993 8.60722 29.2602 10.0578C28.0211 11.4906 26.4722 12.4812 24.6135 13.0296C24.4759 13.065 24.3468 13.0827 24.2263 13.0827C23.8305 13.0827 23.4863 12.9412 23.1937 12.6581C22.9012 12.3751 22.7549 12.039 22.7549 11.6498C22.7549 11.3314 22.8581 11.0484 23.0647 10.8007C23.2712 10.5354 23.5207 10.3585 23.8133 10.27C25.0868 9.91624 26.1366 9.27942 26.9627 8.35956C27.7887 7.42202 28.2362 6.32527 28.305 5.06931H24.6652C24.321 5.06931 24.0198 4.94549 23.7617 4.69783C23.5207 4.45018 23.4002 4.1583 23.4002 3.8222C23.4002 3.4861 23.5207 3.19422 23.7617 2.94657C24.0198 2.69891 24.321 2.57509 24.6652 2.57509H28.305V1.69945C28.305 1.31028 28.4427 0.974183 28.7181 0.691151C29.0106 0.408118 29.3548 0.266602 29.7506 0.266602C30.1465 0.266602 30.4907 0.408118 30.7832 0.691151C31.0758 0.974183 31.2221 1.31028 31.2221 1.69945V2.57509ZM33.5712 7.64314C35.0857 8.45686 36.0236 9.68628 36.385 11.3314C36.4366 11.4552 36.4625 11.5791 36.4625 11.7029C36.4625 12.0744 36.3076 12.4016 35.9978 12.6847C35.688 12.95 35.3524 13.0827 34.991 13.0827C34.6812 13.0827 34.4145 13.0031 34.1908 12.8439C33.9842 12.6847 33.838 12.5343 33.7519 12.3928C33.6831 12.2336 33.5884 12.0036 33.468 11.7029C33.2098 11.0661 32.8656 10.6061 32.4354 10.3231C31.9363 9.987 31.6867 9.54476 31.6867 8.99639C31.6867 8.60722 31.8158 8.27112 32.074 7.98808C32.3493 7.68736 32.6763 7.537 33.0549 7.537C33.2442 7.537 33.4163 7.57238 33.5712 7.64314ZM39.8442 14.3033V9.3148H37.9597C37.5983 9.3148 37.2971 9.19097 37.0562 8.94332C36.8325 8.69567 36.7206 8.41263 36.7206 8.09422C36.7206 7.75812 36.8411 7.46624 37.082 7.21859C37.3229 6.97094 37.6155 6.84711 37.9597 6.84711H39.8442V2.46895C39.8442 2.09747 39.9818 1.77021 40.2572 1.48718C40.5326 1.20415 40.8681 1.06263 41.264 1.06263C41.677 1.06263 42.0126 1.20415 42.2707 1.48718C42.5461 1.77021 42.6838 2.09747 42.6838 2.46895V14.3033C42.6838 14.6747 42.5461 15.002 42.2707 15.285C42.0126 15.5681 41.677 15.7096 41.264 15.7096C40.8681 15.7096 40.5326 15.5681 40.2572 15.285C39.9818 15.002 39.8442 14.6747 39.8442 14.3033Z" fill="#191919"/>
<path id="Vector_6" d="M4.8321 19.9557V20.8844H18.6946C19.0387 20.8844 19.3313 21.0082 19.5722 21.2559C19.8132 21.5035 19.9337 21.7866 19.9337 22.105C19.9337 22.4411 19.8132 22.7241 19.5722 22.9541C19.3313 23.2017 19.0387 23.3256 18.6946 23.3256H3.41229C2.99926 23.3256 2.65506 23.184 2.37971 22.901C2.12156 22.618 1.99249 22.2907 1.99249 21.9192V18.9474C1.99249 18.5759 2.12156 18.2487 2.37971 17.9656C2.65506 17.6649 2.99926 17.5145 3.41229 17.5145H17.094V16.6124H3.20577C2.86158 16.6124 2.56901 16.4885 2.32808 16.2409C2.10435 15.9932 1.99249 15.7014 1.99249 15.3653C1.99249 15.0468 2.10435 14.7638 2.32808 14.5162C2.56901 14.2685 2.86158 14.1447 3.20577 14.1447H18.5138C18.9097 14.1447 19.2453 14.295 19.5206 14.5958C19.796 14.8788 19.9337 15.2061 19.9337 15.5775V18.5494C19.9337 18.9209 19.796 19.2481 19.5206 19.5311C19.2453 19.8142 18.9097 19.9557 18.5138 19.9557H4.8321ZM0.00476074 11.7831C0.00476074 11.447 0.116624 11.1552 0.340351 10.9075C0.581287 10.6598 0.873853 10.536 1.21805 10.536H20.6823C21.0265 10.536 21.3104 10.6598 21.5342 10.9075C21.7751 11.1552 21.8956 11.447 21.8956 11.7831C21.8956 12.1015 21.7751 12.3846 21.5342 12.6322C21.3104 12.8799 21.0265 13.0037 20.6823 13.0037H1.21805C0.873853 13.0037 0.581287 12.8799 0.340351 12.6322C0.116624 12.3846 0.00476074 12.1015 0.00476074 11.7831ZM3.28322 3.76977C2.92181 3.76977 2.62925 3.64594 2.40552 3.39829C2.18179 3.15064 2.06993 2.8676 2.06993 2.54919C2.06993 2.21309 2.17319 1.93006 2.37971 1.70009C2.60343 1.45244 2.9046 1.32861 3.28322 1.32861H14.7449C16.1561 1.32861 17.335 1.83276 18.2815 2.84107C19.2281 3.83168 19.7013 4.99919 19.7013 6.3436V8.17446C19.7013 8.54595 19.5636 8.8732 19.2883 9.15623C19.0129 9.43927 18.6687 9.58078 18.2557 9.58078C17.8427 9.58078 17.5071 9.43927 17.2489 9.15623C16.9908 8.8732 16.8617 8.54595 16.8617 8.17446V6.23746C16.8617 5.56526 16.6294 4.99035 16.1647 4.51273C15.7001 4.01742 15.1321 3.76977 14.461 3.76977H3.28322Z" fill="#191919"/>
</g>
<g id="ink_highlighter">
<mask id="mask0_74_871" style="mask-type:alpha" maskUnits="userSpaceOnUse" x="134" y="4" width="17" height="17">
<rect id="Bounding box" x="134.651" y="4.2666" width="16.0849" height="16.5333" fill="#D9D9D9"/>
</mask>
<g mask="url(#mask0_74_871)">
<path id="ink_highlighter_2" d="M141.085 11.1557L144.704 14.8757L141.353 18.3202C141.085 18.5957 140.772 18.7335 140.415 18.7335C140.057 18.7335 139.744 18.5957 139.476 18.3202L139.443 18.2857L139.007 18.7335H135.656L137.767 16.5635L137.734 16.5291C137.466 16.2535 137.332 15.932 137.332 15.5646C137.332 15.1972 137.466 14.8757 137.734 14.6002L141.085 11.1557ZM142.04 10.1741L145.374 6.74683C145.642 6.47127 145.955 6.3335 146.313 6.3335C146.67 6.3335 146.983 6.47127 147.251 6.74683L148.993 8.53794C149.261 8.8135 149.395 9.13498 149.395 9.50238C149.395 9.86979 149.261 10.1913 148.993 10.4668L145.659 13.8941L142.04 10.1741Z" fill="#191919"/>
</g>
</g>
</g>
</svg>
